<mxfile host="app.diagrams.net" agent="Mozilla/5.0 (X11; Linux x86_64; rv:136.0) Gecko/20100101 Firefox/136.0" version="26.1.1">
  <diagram id="VETf5LYlRZAwOjoE17p3" name="Page-1">
    <mxGraphModel dx="550" dy="602" grid="1" gridSize="10" guides="1" tooltips="1" connect="1" arrows="1" fold="1" page="1" pageScale="1" pageWidth="827" pageHeight="1169" math="0" shadow="0">
      <root>
        <mxCell id="0" />
        <mxCell id="1" parent="0" />
        <mxCell id="ePRh4TcFxG1AIVr1Jd2X-9" style="edgeStyle=orthogonalEdgeStyle;rounded=0;orthogonalLoop=1;jettySize=auto;html=1;entryX=0;entryY=0.5;entryDx=0;entryDy=0;" parent="1" source="ePRh4TcFxG1AIVr1Jd2X-1" target="ePRh4TcFxG1AIVr1Jd2X-7" edge="1">
          <mxGeometry relative="1" as="geometry">
            <Array as="points">
              <mxPoint x="260" y="190" />
            </Array>
          </mxGeometry>
        </mxCell>
        <mxCell id="ePRh4TcFxG1AIVr1Jd2X-19" style="edgeStyle=orthogonalEdgeStyle;rounded=0;orthogonalLoop=1;jettySize=auto;html=1;exitX=0.25;exitY=1;exitDx=0;exitDy=0;entryX=0;entryY=0.5;entryDx=0;entryDy=0;" parent="1" source="ePRh4TcFxG1AIVr1Jd2X-1" target="ePRh4TcFxG1AIVr1Jd2X-13" edge="1">
          <mxGeometry relative="1" as="geometry" />
        </mxCell>
        <mxCell id="ePRh4TcFxG1AIVr1Jd2X-1" value="HRP" style="whiteSpace=wrap;html=1;aspect=fixed;" parent="1" vertex="1">
          <mxGeometry x="240" y="280" width="80" height="80" as="geometry" />
        </mxCell>
        <mxCell id="ePRh4TcFxG1AIVr1Jd2X-11" value="" style="edgeStyle=orthogonalEdgeStyle;rounded=0;orthogonalLoop=1;jettySize=auto;html=1;" parent="1" source="ePRh4TcFxG1AIVr1Jd2X-2" target="ePRh4TcFxG1AIVr1Jd2X-8" edge="1">
          <mxGeometry relative="1" as="geometry" />
        </mxCell>
        <mxCell id="ePRh4TcFxG1AIVr1Jd2X-2" value="DIZ-1" style="whiteSpace=wrap;html=1;aspect=fixed;" parent="1" vertex="1">
          <mxGeometry x="560" y="220" width="80" height="80" as="geometry" />
        </mxCell>
        <mxCell id="ePRh4TcFxG1AIVr1Jd2X-15" value="" style="edgeStyle=orthogonalEdgeStyle;rounded=0;orthogonalLoop=1;jettySize=auto;html=1;" parent="1" source="ePRh4TcFxG1AIVr1Jd2X-3" target="ePRh4TcFxG1AIVr1Jd2X-14" edge="1">
          <mxGeometry relative="1" as="geometry" />
        </mxCell>
        <mxCell id="ePRh4TcFxG1AIVr1Jd2X-3" value="DIZ-2" style="whiteSpace=wrap;html=1;aspect=fixed;" parent="1" vertex="1">
          <mxGeometry x="560" y="340" width="80" height="80" as="geometry" />
        </mxCell>
        <mxCell id="ePRh4TcFxG1AIVr1Jd2X-6" value="" style="edgeStyle=orthogonalEdgeStyle;rounded=0;orthogonalLoop=1;jettySize=auto;html=1;" parent="1" source="ePRh4TcFxG1AIVr1Jd2X-4" target="ePRh4TcFxG1AIVr1Jd2X-1" edge="1">
          <mxGeometry relative="1" as="geometry" />
        </mxCell>
        <mxCell id="ePRh4TcFxG1AIVr1Jd2X-4" value="request&lt;br&gt;feasibility" style="shape=document;whiteSpace=wrap;html=1;boundedLbl=1;" parent="1" vertex="1">
          <mxGeometry x="80" y="290" width="80" height="60" as="geometry" />
        </mxCell>
        <mxCell id="ePRh4TcFxG1AIVr1Jd2X-10" style="edgeStyle=orthogonalEdgeStyle;rounded=0;orthogonalLoop=1;jettySize=auto;html=1;exitX=1;exitY=0.5;exitDx=0;exitDy=0;entryX=0.5;entryY=0;entryDx=0;entryDy=0;" parent="1" source="ePRh4TcFxG1AIVr1Jd2X-7" target="ePRh4TcFxG1AIVr1Jd2X-2" edge="1">
          <mxGeometry relative="1" as="geometry" />
        </mxCell>
        <mxCell id="ePRh4TcFxG1AIVr1Jd2X-7" value="execute&lt;br&gt;feasibility" style="shape=document;whiteSpace=wrap;html=1;boundedLbl=1;" parent="1" vertex="1">
          <mxGeometry x="400" y="160" width="80" height="60" as="geometry" />
        </mxCell>
        <mxCell id="ePRh4TcFxG1AIVr1Jd2X-12" value="" style="edgeStyle=orthogonalEdgeStyle;rounded=0;orthogonalLoop=1;jettySize=auto;html=1;" parent="1" source="ePRh4TcFxG1AIVr1Jd2X-8" target="ePRh4TcFxG1AIVr1Jd2X-1" edge="1">
          <mxGeometry relative="1" as="geometry">
            <Array as="points">
              <mxPoint x="300" y="260" />
            </Array>
          </mxGeometry>
        </mxCell>
        <mxCell id="ePRh4TcFxG1AIVr1Jd2X-8" value="result&lt;br&gt;DIZ-1" style="shape=document;whiteSpace=wrap;html=1;boundedLbl=1;" parent="1" vertex="1">
          <mxGeometry x="400" y="230" width="80" height="60" as="geometry" />
        </mxCell>
        <mxCell id="ePRh4TcFxG1AIVr1Jd2X-20" value="" style="edgeStyle=orthogonalEdgeStyle;rounded=0;orthogonalLoop=1;jettySize=auto;html=1;" parent="1" source="ePRh4TcFxG1AIVr1Jd2X-13" target="ePRh4TcFxG1AIVr1Jd2X-3" edge="1">
          <mxGeometry relative="1" as="geometry">
            <Array as="points">
              <mxPoint x="600" y="450" />
            </Array>
          </mxGeometry>
        </mxCell>
        <mxCell id="ePRh4TcFxG1AIVr1Jd2X-13" value="execute&lt;br&gt;feasibility" style="shape=document;whiteSpace=wrap;html=1;boundedLbl=1;" parent="1" vertex="1">
          <mxGeometry x="400" y="420" width="80" height="60" as="geometry" />
        </mxCell>
        <mxCell id="ePRh4TcFxG1AIVr1Jd2X-16" value="" style="edgeStyle=orthogonalEdgeStyle;rounded=0;orthogonalLoop=1;jettySize=auto;html=1;" parent="1" source="ePRh4TcFxG1AIVr1Jd2X-14" target="ePRh4TcFxG1AIVr1Jd2X-1" edge="1">
          <mxGeometry relative="1" as="geometry">
            <Array as="points">
              <mxPoint x="300" y="380" />
            </Array>
          </mxGeometry>
        </mxCell>
        <mxCell id="ePRh4TcFxG1AIVr1Jd2X-14" value="result&lt;br&gt;DIZ-1" style="shape=document;whiteSpace=wrap;html=1;boundedLbl=1;" parent="1" vertex="1">
          <mxGeometry x="400" y="350" width="80" height="60" as="geometry" />
        </mxCell>
        <mxCell id="ePRh4TcFxG1AIVr1Jd2X-22" value="1" style="ellipse;whiteSpace=wrap;html=1;aspect=fixed;fillColor=#fff2cc;strokeColor=#d6b656;" parent="1" vertex="1">
          <mxGeometry x="150" y="280" width="20" height="20" as="geometry" />
        </mxCell>
        <mxCell id="ePRh4TcFxG1AIVr1Jd2X-23" value="2" style="ellipse;whiteSpace=wrap;html=1;aspect=fixed;fillColor=#fff2cc;strokeColor=#d6b656;" parent="1" vertex="1">
          <mxGeometry x="470" y="150" width="20" height="20" as="geometry" />
        </mxCell>
        <mxCell id="ePRh4TcFxG1AIVr1Jd2X-24" value="2" style="ellipse;whiteSpace=wrap;html=1;aspect=fixed;fillColor=#fff2cc;strokeColor=#d6b656;" parent="1" vertex="1">
          <mxGeometry x="470" y="410" width="20" height="20" as="geometry" />
        </mxCell>
        <mxCell id="ePRh4TcFxG1AIVr1Jd2X-25" value="3" style="ellipse;whiteSpace=wrap;html=1;aspect=fixed;fillColor=#fff2cc;strokeColor=#d6b656;" parent="1" vertex="1">
          <mxGeometry x="470" y="220" width="20" height="20" as="geometry" />
        </mxCell>
        <mxCell id="ePRh4TcFxG1AIVr1Jd2X-26" value="3" style="ellipse;whiteSpace=wrap;html=1;aspect=fixed;fillColor=#fff2cc;strokeColor=#d6b656;" parent="1" vertex="1">
          <mxGeometry x="470" y="340" width="20" height="20" as="geometry" />
        </mxCell>
      </root>
    </mxGraphModel>
  </diagram>
</mxfile>
